<svg id="_01_Header" data-name=" 01 Header" xmlns="http://www.w3.org/2000/svg" xmlns:xlink="http://www.w3.org/1999/xlink" viewBox="0 0 30.71 50"><defs><style>.cls-1{fill:none;}.cls-2{opacity:0.6;}.cls-3{clip-path:url(#clip-path);}.cls-4{fill:#010101;}.cls-5{opacity:0.45;}.cls-6{clip-path:url(#clip-path-2);}.cls-7{opacity:0.8;}.cls-8{clip-path:url(#clip-path-3);}.cls-9{clip-path:url(#clip-path-4);}.cls-10{clip-path:url(#clip-path-5);}</style><clipPath id="clip-path" transform="translate(-37.92 -13.55)"><rect class="cls-1" x="37.92" y="32.03" width="30.69" height="16.05"/></clipPath><clipPath id="clip-path-2" transform="translate(-37.92 -13.55)"><rect class="cls-1" x="37.92" y="13.55" width="15.35" height="34.54"/></clipPath><clipPath id="clip-path-3" transform="translate(-37.92 -13.55)"><rect class="cls-1" x="53.27" y="13.55" width="15.35" height="34.54"/></clipPath><clipPath id="clip-path-4" transform="translate(-37.92 -13.55)"><rect class="cls-1" x="37.92" y="41.92" width="15.35" height="21.62"/></clipPath><clipPath id="clip-path-5" transform="translate(-37.92 -13.55)"><rect class="cls-1" x="53.27" y="41.92" width="15.36" height="21.62"/></clipPath></defs><title>eth</title><g class="cls-2"><g class="cls-3"><path class="cls-4" d="M53.27,32L37.92,39,53.27,48.1,68.61,39Z" transform="translate(-37.92 -13.55)"/></g></g><g class="cls-5"><g class="cls-6"><path class="cls-4" d="M37.92,39l15.35,9.07V13.55Z" transform="translate(-37.92 -13.55)"/></g></g><g class="cls-7"><g class="cls-8"><path class="cls-4" d="M53.27,13.55V48.09L68.61,39Z" transform="translate(-37.92 -13.55)"/></g></g><g class="cls-5"><g class="cls-9"><path class="cls-4" d="M37.92,41.92L53.27,63.54V51Z" transform="translate(-37.92 -13.55)"/></g></g><g class="cls-7"><g class="cls-10"><path class="cls-4" d="M53.27,51V63.55L68.63,41.93Z" transform="translate(-37.92 -13.55)"/></g></g></svg>